<?xml version="1.0" encoding="utf-8"?>
<svg viewBox="0 0 512 512" xmlns="http://www.w3.org/2000/svg">
  <path style="stroke: rgb(0, 0, 0); fill: rgb(240, 244, 248);" d="M 83.133 45.761 L 232.599 42.28 L 433.951 44.855 L 474.638 69.946 L 496.033 109.85 L 495.191 389.847 L 427.474 419.3 L 54.353 416.891 L 16.215 359.268 L 18.124 108.654 L 38.61 68.213 L 83.133 45.761 Z"/>
  <path d="M 97.463 31 L 414.498 31 C 439.52 31 462.304 41.61 478.862 58.684 C 495.586 75.925 506 99.793 506 126.048 L 506 385.949 C 506 412.207 495.625 436.031 478.862 453.312 C 462.304 470.39 439.52 481 414.498 481 L 97.463 481 C 72.441 481 49.657 470.39 33.099 453.312 C 16.375 436.031 6 412.207 6 385.949 L 6 126.007 C 6 99.749 16.375 75.881 33.099 58.644 C 49.657 41.61 72.441 31 97.463 31 Z M 289.182 244.799 L 330.887 257.761 C 328.078 269.8 323.686 279.912 317.62 287.963 C 311.597 296.059 304.153 302.138 295.204 306.25 C 286.294 310.362 274.9 312.413 261.108 312.413 C 244.345 312.413 230.675 309.899 220.052 304.908 C 209.434 299.875 200.32 291.065 192.59 278.438 C 184.902 265.856 181.035 249.665 181.035 229.993 C 181.035 203.778 187.79 183.599 201.339 169.468 C 214.927 155.372 234.091 148.323 258.909 148.323 C 278.316 148.323 293.574 152.35 304.682 160.445 C 315.751 168.542 324.05 180.961 329.422 197.738 L 287.473 207.299 C 286.008 202.517 284.46 198.996 282.834 196.772 C 280.15 193.039 276.894 190.145 273.07 188.174 C 269.202 186.162 264.893 185.151 260.132 185.151 C 249.31 185.151 241.05 189.638 235.31 198.532 C 230.957 205.163 228.802 215.567 228.802 229.698 C 228.802 247.274 231.364 259.274 236.571 265.817 C 241.779 272.314 249.063 275.588 258.424 275.588 C 267.537 275.588 274.41 272.945 279.049 267.705 C 283.727 262.458 287.066 254.826 289.182 244.799 Z M 24.47 350.716 C 27.687 364.053 33.992 375.964 42.537 385.486 C 55.111 399.453 72.441 408.139 91.566 408.139 L 420.438 408.139 C 421.21 408.139 421.982 408.139 422.758 408.095 L 427.436 407.761 C 443.752 405.912 458.437 397.737 469.467 385.486 C 478.008 376.008 484.317 364.098 487.53 350.756 L 487.53 126.007 C 487.53 105.665 479.391 87.078 466.332 73.618 C 452.614 59.425 433.974 51.453 414.537 51.466 L 97.463 51.466 C 77.241 51.466 58.892 59.942 45.668 73.618 C 32.57 87.126 24.47 105.665 24.47 126.007 L 24.47 350.716 Z" style=""/>
</svg>